# xmcd
#
# Track frame offsets:
#	150
#	14160
#	31890
#	52758
#	68260
#	81356
#	99708
#	112770
#	127031
#	140118
#	159388
#	177188
#	191310
#	204258
#
# Disc length: 2944
#
# Revision: 1
# Processed by: cddbd v1.5.1PL0 Copyright (c) Steve Scherf et al.
# Submitted via: FreeRIP 2.70 
# Normalized: r0:TRMNUM
#
DISCID=b20b7e0e
DTITLE=Dobie Gray - Dobie Gray
DYEAR=1900
DGENRE=R&B
TTITLE0=Loving Arms
TTITLE1=What A Wonderfull World
TTITLE2=Drift Away
TTITLE3=Got My Heart Set On You
TTITLE4=Its Over
TTITLE5=We Had It All
TTITLE6=Cupid
TTITLE7=I Can See Clearly Now
TTITLE8=Slip Away
TTITLE9=Lean On Me
TTITLE10=Street Of Fire
TTITLE11=Aint That Good News
TTITLE12=The In Crowd
TTITLE13=Slow Rain
EXTD=
EXTT0=
EXTT1=
EXTT2=
EXTT3=
EXTT4=
EXTT5=
EXTT6=
EXTT7=
EXTT8=
EXTT9=
EXTT10=
EXTT11=
EXTT12=
EXTT13=
PLAYORDER=
